<svg xmlns="http://www.w3.org/2000/svg" width="300" height="400" viewBox="0 0 300 400"><defs><linearGradient id="bg" x2="0" y2="1"><stop stop-color="#e6d6c0"/><stop offset="1" stop-color="#c88f59"/></linearGradient><linearGradient id="ruby" x2="0" y2="1"><stop stop-color="#ff5a3b"/><stop offset=".45" stop-color="#b31f1e"/><stop offset="1" stop-color="#721313"/></linearGradient></defs><rect width="300" height="400" fill="url(#bg)"/><path d="M150 24L176 91 251 107 198 159 213 232 150 194 87 232 102 159 49 107 124 91z" fill="#f0d3a4" opacity=".25"/><path d="M150 48L166 119 236 137 183 178 192 247 150 214 108 247 117 178 64 137 134 119z" fill="url(#ruby)" stroke="#7b1715" stroke-width="4"/><path d="M150 48v305M92 143h116" stroke="#ff7a54" stroke-width="19" stroke-linejoin="round"/><path d="M112 143h38M150 143h38" stroke="#7b1715" stroke-width="35"/><path d="M150 353q-8 15 0 25 8-10 0-25z" fill="#7b1715"/></svg>