<svg xmlns="http://www.w3.org/2000/svg" width="300" height="400" viewBox="0 0 300 400"><defs><linearGradient id="g" x2="0" y2="1"><stop stop-color="#0c5a42"/><stop offset="1" stop-color="#8abf72"/></linearGradient></defs><rect width="300" height="400" fill="url(#g)"/><path d="M0 330q80-28 300 0v70H0z" fill="#6ba45d"/><g fill="none" stroke-linecap="round"><path d="M82 370Q54 282 92 196T78 61" stroke="#b7dc82" stroke-width="30"/><path d="M209 370Q237 278 199 208T225 70" stroke="#174f39" stroke-width="29"/><path d="M82 370Q54 282 92 196T78 61" stroke="#d0e99a" stroke-width="5" opacity=".55"/><path d="M209 370Q237 278 199 208T225 70" stroke="#7caf61" stroke-width="5" opacity=".55"/></g><g stroke="#d0df89" stroke-width="4"><path d="M66 308l34 5M61 256l38 4M72 202l38 2M83 148l-30 10M213 308l-35 6M220 256l-40 3M208 204l-34 3M207 149l30 9"/></g><g fill="#b8da7d"><path d="M77 113q-39-25-51-3 26 14 51 8z"/><path d="M219 124q38-29 53-8-28 17-52 14z"/><path d="M85 183q-37-23-49-3 25 14 49 8z"/><path d="M211 193q36-24 49-4-25 15-49 9z"/></g></svg>